<svg xmlns="http://www.w3.org/2000/svg" xmlns:xlink="http://www.w3.org/1999/xlink" width="500" zoomAndPan="magnify" viewBox="0 0 375 225" height="300" preserveAspectRatio="xMidYMid meet" version="1.0"><defs><g/><clipPath id="7b231932a0"><path d="M 110.554688 13.316406 L 212.613281 13.316406 L 212.613281 64 L 110.554688 64 Z M 110.554688 13.316406 " clip-rule="nonzero"/></clipPath><clipPath id="43283e9087"><path d="M 0.398438 0 L 117 0 L 117 212 L 0.398438 212 Z M 0.398438 0 " clip-rule="nonzero"/></clipPath><clipPath id="876952f814"><rect x="0" width="117" y="0" height="212"/></clipPath><clipPath id="64a51a4ceb"><path d="M 12.195312 170.773438 L 212.550781 170.773438 L 212.550781 190.8125 L 12.195312 190.8125 Z M 12.195312 170.773438 " clip-rule="nonzero"/></clipPath><clipPath id="6e67f432ab"><path d="M 52 0 L 247.121094 0 L 247.121094 224.160156 L 52 224.160156 Z M 52 0 " clip-rule="nonzero"/></clipPath><clipPath id="89dc204fe6"><rect x="0" width="196" y="0" height="225"/></clipPath><clipPath id="addb02340b"><rect x="0" width="248" y="0" height="225"/></clipPath></defs><g transform="matrix(1, 0, 0, 1, 68, -0.000000000000008531)"><g clip-path="url(#addb02340b)"><g clip-path="url(#7b231932a0)"><path fill="#e6ff4b" d="M 194.191406 45.855469 L 194.191406 31.085938 L 184.683594 31.085938 L 184.683594 36.351562 L 161.648438 13.316406 L 110.972656 63.992188 L 161.648438 23.773438 L 212.253906 63.992188 Z M 194.191406 45.855469 " fill-opacity="1" fill-rule="nonzero"/></g><g clip-path="url(#43283e9087)"><g transform="matrix(1, 0, 0, 1, 0, -0.000000000000008531)"><g clip-path="url(#876952f814)"><g fill="#ffffff" fill-opacity="1"><g transform="translate(1.877618, 147.080661)"><g><path d="M 42.453125 1.6875 C 31.960938 1.6875 23.671875 -0.757812 17.578125 -5.65625 C 11.492188 -10.5625 8.453125 -17.300781 8.453125 -25.875 C 8.453125 -34.101562 11.1875 -40.671875 16.65625 -45.578125 C 22.125 -50.484375 29.484375 -52.9375 38.734375 -52.9375 L 70.859375 -52.9375 L 70.859375 -57 C 70.859375 -61.394531 69.28125 -64.914062 66.125 -67.5625 C 62.96875 -70.21875 58.851562 -71.546875 53.78125 -71.546875 C 49.613281 -71.546875 46.0625 -70.585938 43.125 -68.671875 C 40.195312 -66.753906 38.335938 -64.210938 37.546875 -61.046875 L 12.859375 -61.046875 C 14.429688 -70.742188 18.796875 -78.1875 25.953125 -83.375 C 33.117188 -88.5625 42.335938 -91.15625 53.609375 -91.15625 C 66.910156 -91.15625 77.3125 -87.800781 84.8125 -81.09375 C 92.3125 -74.382812 96.0625 -65.164062 96.0625 -53.4375 L 96.0625 0 L 76.953125 0 L 74.078125 -10.3125 C 66.296875 -2.3125 55.753906 1.6875 42.453125 1.6875 Z M 33.828125 -26.890625 C 33.828125 -23.847656 35.148438 -21.394531 37.796875 -19.53125 C 40.453125 -17.675781 43.976562 -16.75 48.375 -16.75 C 54.800781 -16.75 60.125 -18.609375 64.34375 -22.328125 C 68.570312 -26.046875 70.800781 -30.894531 71.03125 -36.875 L 46.671875 -36.875 C 42.835938 -36.875 39.738281 -35.96875 37.375 -34.15625 C 35.007812 -32.351562 33.828125 -29.929688 33.828125 -26.890625 Z M 33.828125 -26.890625 "/></g></g></g><g fill="#ffffff" fill-opacity="1"><g transform="translate(92.363409, 147.080661)"><g/></g></g></g></g></g><g clip-path="url(#64a51a4ceb)"><path fill="#e6ff4b" d="M 12.207031 170.773438 L 12.207031 190.820312 L 212.660156 190.820312 L 212.660156 170.773438 Z M 12.207031 170.773438 " fill-opacity="1" fill-rule="nonzero"/></g><g clip-path="url(#6e67f432ab)"><g transform="matrix(1, 0, 0, 1, 52, -0.000000000000008531)"><g clip-path="url(#89dc204fe6)"><g fill="#ffffff" fill-opacity="1"><g transform="translate(72.32697, 163.947278)"><g><path d="M 51.40625 -19.140625 C 42.675781 -15.453125 34.191406 -14.007812 25.953125 -14.8125 C 17.710938 -15.613281 10.351562 -18.472656 3.875 -23.390625 C -2.59375 -28.304688 -7.628906 -35.023438 -11.234375 -43.546875 C -14.828125 -52.054688 -16.085938 -60.332031 -15.015625 -68.375 C -13.953125 -76.414062 -10.835938 -83.664062 -5.671875 -90.125 C -0.503906 -96.59375 6.492188 -101.691406 15.328125 -105.421875 C 24.671875 -109.367188 33.617188 -110.703125 42.171875 -109.421875 C 50.734375 -108.140625 58.382812 -104.519531 65.125 -98.5625 C 71.863281 -92.601562 77.082031 -84.519531 80.78125 -74.3125 L 15.203125 -46.609375 C 18.703125 -41.492188 23 -38.265625 28.09375 -36.921875 C 33.1875 -35.585938 38.429688 -36.0625 43.828125 -38.34375 C 47.785156 -40.007812 51.082031 -42.285156 53.71875 -45.171875 C 56.351562 -48.066406 58.085938 -51.28125 58.921875 -54.8125 L 82.90625 -64.9375 C 83.007812 -54.832031 80.300781 -45.734375 74.78125 -37.640625 C 69.269531 -29.554688 61.476562 -23.390625 51.40625 -19.140625 Z M 9.015625 -61.640625 L 51.546875 -79.609375 C 48.097656 -84.023438 43.925781 -86.878906 39.03125 -88.171875 C 34.144531 -89.460938 28.945312 -88.945312 23.4375 -86.625 C 18.25 -84.4375 14.359375 -81.113281 11.765625 -76.65625 C 9.179688 -72.195312 8.265625 -67.191406 9.015625 -61.640625 Z M 9.015625 -61.640625 "/></g></g></g></g></g></g></g></g></svg>